<?xml version="1.0" standalone="no"?>
<!DOCTYPE svg PUBLIC "-//W3C//DTD SVG 20010904//EN"
 "http://www.w3.org/TR/2001/REC-SVG-20010904/DTD/svg10.dtd">
<svg version="1.0" xmlns="http://www.w3.org/2000/svg"
 width="50.000000pt" height="46.000000pt" viewBox="0 0 50.000000 46.000000"
 preserveAspectRatio="xMidYMid meet">

<g transform="translate(0.000000,46.000000) scale(0.100000,-0.100000)"
fill="#000000" stroke="none">
<path d="M167 454 c-4 -4 -7 -36 -7 -71 0 -57 -2 -63 -21 -63 -30 0 -22 -11
48 -69 l62 -52 66 52 c69 56 78 69 45 69 -16 0 -20 7 -20 30 0 17 -4 30 -10
30 -14 0 -13 -77 1 -82 6 -2 -10 -21 -35 -42 l-46 -37 -46 37 c-25 21 -41 40
-35 42 7 2 11 31 11 73 l0 69 70 0 c56 0 70 -3 70 -15 0 -8 5 -15 11 -15 6 0
9 10 7 23 -3 20 -9 22 -83 25 -45 1 -84 0 -88 -4z"/>
<path d="M228 398 c-26 -32 -22 -48 12 -61 17 -6 30 -17 30 -24 0 -16 -32 -17
-48 -1 -20 20 -13 -5 8 -31 l20 -23 20 23 c10 13 19 29 20 35 0 16 -22 34 -43
34 -12 0 -17 6 -15 17 4 23 38 30 38 9 0 -9 5 -16 10 -16 17 0 11 25 -10 43
-25 21 -21 21 -42 -5z"/>
<path d="M318 193 l-27 -26 -73 21 c-46 14 -100 22 -148 22 -106 0 -76 -17 40
-22 113 -6 215 -40 215 -74 0 -20 -6 -21 -80 -10 l-40 6 35 -14 c66 -27 83
-22 153 50 60 61 87 73 87 40 0 -28 -75 -98 -141 -131 -38 -19 -74 -35 -82
-35 -7 0 -44 13 -82 30 -71 30 -158 40 -170 20 -4 -6 15 -10 50 -10 39 0 77
-9 129 -31 l73 -31 79 40 c99 50 171 123 159 161 -5 17 -15 19 -78 20 -66 1
-75 -2 -99 -26z m52 9 c0 -14 -49 -56 -57 -49 -3 4 4 18 17 32 24 25 40 32 40
17z m22 -38 c-24 -31 -52 -45 -52 -27 0 13 63 72 72 67 4 -3 -4 -21 -20 -40z"/>
</g>
</svg>
