<?xml version="1.0" standalone="no"?>
<!DOCTYPE svg PUBLIC "-//W3C//DTD SVG 20010904//EN"
 "http://www.w3.org/TR/2001/REC-SVG-20010904/DTD/svg10.dtd">
<svg version="1.0" xmlns="http://www.w3.org/2000/svg"
 width="64.000000pt" height="42.000000pt" viewBox="0 0 64.000000 42.000000"
 preserveAspectRatio="xMidYMid meet">

<g transform="translate(0.000000,42.000000) scale(0.100000,-0.100000)"
fill="#000000" stroke="none">
<path d="M30 240 c0 -153 -2 -180 -15 -180 -18 0 -20 -31 -3 -48 17 -17 599
-17 616 0 17 17 15 48 -3 48 -13 0 -15 27 -15 180 l0 180 -290 0 -290 0 0
-180z m560 150 c0 -5 -13 -10 -30 -10 -16 0 -30 -4 -30 -10 0 -5 14 -10 30
-10 l30 0 0 -150 0 -150 -270 0 -270 0 0 150 0 150 225 0 c143 0 225 4 225 10
0 6 -82 10 -225 10 -143 0 -225 4 -225 10 0 6 97 10 270 10 173 0 270 -4 270
-10z m30 -360 c0 -6 -107 -10 -300 -10 -193 0 -300 4 -300 10 0 6 107 10 300
10 193 0 300 -4 300 -10z"/>
<path d="M247 308 c-22 -29 -27 -32 -46 -20 -18 10 -26 9 -56 -10 -53 -35 -47
-52 6 -21 25 15 32 16 51 4 20 -13 24 -11 49 18 23 28 28 30 39 16 10 -12 10
-15 -2 -15 -8 0 -21 -11 -28 -25 -8 -15 -19 -24 -28 -20 -49 19 -58 16 -91
-25 -42 -52 -31 -68 12 -17 29 35 34 38 60 28 39 -15 42 -14 57 14 12 23 50
36 50 18 0 -5 9 -19 20 -33 l19 -25 35 34 c30 29 38 32 51 21 12 -10 18 -10
30 0 12 10 18 10 30 0 22 -18 31 -4 12 18 -15 17 -15 20 -1 41 22 31 7 41 -16
11 l-19 -25 -25 25 -26 24 -38 -37 c-21 -20 -43 -37 -50 -37 -6 0 -22 16 -34
35 -13 19 -26 35 -29 35 -4 0 -18 -15 -32 -32z m208 -18 c19 -21 7 -28 -13 -8
-9 9 -20 4 -47 -22 -19 -18 -37 -31 -41 -28 -5 6 65 77 77 78 3 0 14 -9 24
-20z"/>
<path d="M466 211 c-23 -26 -20 -50 9 -61 26 -10 34 -30 12 -30 -7 0 -18 5
-25 12 -19 19 -15 -12 4 -33 16 -18 17 -17 35 5 25 32 24 45 -6 56 -27 10 -34
30 -10 30 8 0 15 -4 15 -10 0 -5 5 -10 10 -10 17 0 11 24 -9 42 -18 15 -20 15
-35 -1z"/>
<path d="M250 130 c0 -5 9 -10 20 -10 11 0 20 5 20 10 0 6 -9 10 -20 10 -11 0
-20 -4 -20 -10z"/>
<path d="M310 130 c0 -5 20 -10 45 -10 25 0 45 5 45 10 0 6 -20 10 -45 10 -25
0 -45 -4 -45 -10z"/>
<path d="M250 90 c0 -5 9 -10 20 -10 11 0 20 5 20 10 0 6 -9 10 -20 10 -11 0
-20 -4 -20 -10z"/>
<path d="M310 90 c0 -5 25 -10 55 -10 30 0 55 5 55 10 0 6 -25 10 -55 10 -30
0 -55 -4 -55 -10z"/>
</g>
</svg>
