<?xml version="1.0" standalone="no"?>
<!DOCTYPE svg PUBLIC "-//W3C//DTD SVG 20010904//EN"
 "http://www.w3.org/TR/2001/REC-SVG-20010904/DTD/svg10.dtd">
<svg version="1.0" xmlns="http://www.w3.org/2000/svg"
 width="53.000000pt" height="53.000000pt" viewBox="0 0 53.000000 53.000000"
 preserveAspectRatio="xMidYMid meet">

<g transform="translate(0.000000,53.000000) scale(0.100000,-0.100000)"
fill="#000000" stroke="none">
<path d="M437 523 c-32 -5 -45 -27 -28 -47 9 -11 1 -23 -40 -60 -66 -59 -174
-112 -268 -132 -84 -17 -91 -20 -91 -39 0 -22 25 -24 101 -9 73 15 254 94 233
101 -6 2 -43 -12 -82 -31 -94 -48 -232 -81 -232 -56 0 6 13 10 29 10 96 0 302
104 371 188 l31 37 -28 5 c-24 5 -25 7 -10 13 10 4 32 7 48 7 26 0 29 -3 29
-34 0 -19 -4 -38 -10 -41 -5 -3 -10 1 -10 9 0 9 -4 16 -8 16 -11 0 -102 -94
-102 -105 0 -5 20 11 45 35 38 37 46 41 60 30 24 -20 37 1 33 56 -3 53 -9 57
-71 47z"/>
<path d="M370 175 l0 -155 -30 0 -30 0 0 110 0 110 -45 0 -45 0 0 -110 0 -110
-30 0 -30 0 0 90 0 90 -50 0 -50 0 0 -90 0 -90 -30 0 c-17 0 -30 -4 -30 -10 0
-6 95 -10 265 -10 170 0 265 4 265 10 0 6 -13 10 -30 10 l-30 0 0 155 0 155
-50 0 -50 0 0 -155z m80 -10 l0 -145 -30 0 -30 0 0 145 0 145 30 0 30 0 0
-145z m-150 -45 l0 -100 -35 0 -35 0 0 100 0 100 35 0 35 0 0 -100z m-160 -20
l0 -80 -30 0 -30 0 0 80 0 80 30 0 30 0 0 -80z"/>
</g>
</svg>
