<?xml version="1.0" standalone="no"?>
<!DOCTYPE svg PUBLIC "-//W3C//DTD SVG 20010904//EN"
 "http://www.w3.org/TR/2001/REC-SVG-20010904/DTD/svg10.dtd">
<svg version="1.0" xmlns="http://www.w3.org/2000/svg"
 width="68.000000pt" height="45.000000pt" viewBox="0 0 68.000000 45.000000"
 preserveAspectRatio="xMidYMid meet">

<g transform="translate(0.000000,45.000000) scale(0.100000,-0.100000)"
fill="#000000" stroke="none">
<path d="M37 443 c-4 -3 -7 -89 -7 -190 0 -154 -2 -185 -15 -189 -18 -7 -20
-35 -3 -52 17 -17 639 -17 656 0 17 17 15 45 -3 52 -12 4 -15 38 -17 193 l-3
188 -301 3 c-165 1 -303 -1 -307 -5z m588 -23 c4 -6 -6 -10 -24 -10 -16 0 -32
-4 -35 -9 -7 -10 17 -21 45 -21 18 0 19 -9 19 -155 l0 -155 -290 0 -290 0 0
155 0 155 229 0 c126 0 236 3 245 6 46 17 -18 24 -235 24 -158 0 -238 3 -234
10 8 14 562 14 570 0z m30 -390 c-8 -14 -622 -14 -630 0 -4 7 103 10 315 10
212 0 319 -3 315 -10z"/>
<path d="M264 329 c-27 -27 -34 -29 -53 -20 -17 9 -27 7 -56 -11 -53 -35 -48
-52 6 -21 25 15 33 16 50 4 19 -11 25 -9 54 19 28 27 33 29 45 15 10 -12 10
-15 -4 -15 -9 0 -22 -11 -28 -25 -13 -28 -12 -28 -55 -16 -30 9 -35 6 -68 -30
-47 -53 -45 -73 3 -26 35 34 42 37 78 31 36 -5 41 -3 54 20 18 34 34 33 62 -4
12 -16 26 -30 32 -30 5 0 25 14 43 32 27 26 35 29 48 18 12 -10 18 -10 30 0
12 10 18 10 30 0 22 -18 31 -4 12 18 -15 17 -15 20 -1 41 22 31 7 41 -16 11
l-19 -25 -23 23 c-32 29 -38 28 -78 -13 -19 -19 -39 -35 -46 -35 -7 0 -22 16
-34 35 -12 19 -25 35 -29 35 -3 0 -20 -14 -37 -31z m231 -37 c-2 -3 -12 1 -20
8 -14 11 -22 8 -54 -24 -23 -22 -41 -33 -45 -27 -4 5 13 28 36 50 l43 40 22
-21 c13 -12 21 -24 18 -26z"/>
<path d="M496 225 c-23 -34 -20 -54 9 -65 26 -10 34 -30 12 -30 -7 0 -18 5
-25 12 -18 18 -15 -12 3 -36 13 -17 14 -17 35 2 26 24 23 53 -8 67 -25 11 -29
25 -7 25 8 0 15 -4 15 -10 0 -5 5 -10 10 -10 16 0 12 20 -9 46 l-19 24 -16
-25z"/>
<path d="M270 140 c0 -5 9 -10 20 -10 11 0 20 5 20 10 0 6 -9 10 -20 10 -11 0
-20 -4 -20 -10z"/>
<path d="M330 140 c0 -5 20 -10 45 -10 25 0 45 5 45 10 0 6 -20 10 -45 10 -25
0 -45 -4 -45 -10z"/>
<path d="M270 100 c0 -5 9 -10 21 -10 11 0 17 5 14 10 -3 6 -13 10 -21 10 -8
0 -14 -4 -14 -10z"/>
<path d="M330 100 c0 -5 25 -10 55 -10 30 0 55 5 55 10 0 6 -25 10 -55 10 -30
0 -55 -4 -55 -10z"/>
</g>
</svg>
