<?xml version="1.0" standalone="no"?>
<!DOCTYPE svg PUBLIC "-//W3C//DTD SVG 20010904//EN"
 "http://www.w3.org/TR/2001/REC-SVG-20010904/DTD/svg10.dtd">
<svg version="1.0" xmlns="http://www.w3.org/2000/svg"
 width="50.000000pt" height="50.000000pt" viewBox="0 0 50.000000 50.000000"
 preserveAspectRatio="xMidYMid meet">

<g transform="translate(0.000000,50.000000) scale(0.100000,-0.100000)"
fill="#000000" stroke="none">
<path d="M408 493 c-29 -5 -40 -37 -15 -46 18 -8 -68 -81 -143 -121 -72 -38
-158 -66 -202 -66 -31 0 -48 -24 -30 -42 18 -18 154 15 240 57 39 20 72 40 72
46 0 5 -30 -6 -68 -25 -81 -41 -163 -66 -211 -65 -27 0 -12 7 56 24 116 30
200 74 272 144 51 50 54 55 33 59 -33 5 -16 22 24 22 32 0 34 -2 34 -35 0 -19
-4 -35 -10 -35 -5 0 -10 8 -10 17 0 12 -15 2 -50 -32 -27 -27 -47 -51 -45 -54
3 -2 22 12 43 32 30 29 41 34 50 25 20 -20 34 5 30 53 -3 47 -11 51 -70 42z"/>
<path d="M350 165 l0 -145 -25 0 c-24 0 -24 1 -27 103 l-3 102 -45 0 -45 0 -3
-102 c-3 -102 -3 -103 -27 -103 -25 0 -25 1 -25 85 l0 85 -45 0 -45 0 0 -85
c0 -83 0 -85 -24 -85 -14 0 -28 -5 -31 -10 -4 -7 80 -10 245 -10 165 0 249 3
245 10 -3 6 -17 10 -31 10 l-24 0 0 145 0 145 -45 0 -45 0 0 -145z m80 -5 l0
-140 -30 0 -30 0 0 140 0 140 30 0 30 0 0 -140z m-150 -45 l0 -95 -30 0 -30 0
0 95 0 95 30 0 30 0 0 -95z m-150 -20 l0 -75 -30 0 -30 0 0 75 0 75 30 0 30 0
0 -75z"/>
</g>
</svg>
